<svg t="1568644661244" class="icon" viewBox="0 0 1024 1024" version="1.1" xmlns="http://www.w3.org/2000/svg" p-id="2017" width="200" height="200"><path d="M820.174801 479.288994c-28.152177 43.329854-76.767408 113.405863-88.816838 130.727367-0.372483 21.172205-1.954515 107.113553-4.009314 158.868287-0.721431 18.406209-6.767124 31.881105-17.97028 40.022529-5.341658 3.879354-13.591553 7.66661-25.483394 7.66661-4.043083 0-8.66331-0.636496-13.574157-1.654686-2.339278 0.458441-4.761444 0.545422-7.193843-0.121773-48.567135-13.46671-129.421628-38.35147-151.124929-45.060265-21.704324 6.708795-102.558817 31.593556-151.125953 45.060265-2.432399 0.668219-4.854565 0.580215-7.193843 0.121773-4.912893 1.01819-9.531074 1.654686-13.574157 1.654686-11.894911 0-20.143783-3.787256-25.483394-7.66661-11.203156-8.142447-17.248849-21.61632-17.97028-40.022529-2.054799-51.754734-3.635807-137.695059-4.009314-158.868287-12.048407-17.322527-60.666708-87.397512-88.816838-130.727367-8.821923-13.561877-11.280928-29.246091-6.745634-43.024909 4.473895-13.598716 15.311731-24.248264 30.523177-29.979802 48.408523-18.257829 129.114636-47.0025 148.82249-54.003961 11.42726-14.858406 54.654784-71.009264 86.832647-111.738897 4.113691-5.278213 8.066723-10.328229 11.719926-14.95562 0.2415-0.309038 0.569982-0.525979 0.818645-0.823761 0.065492-0.082888 0.13917-0.178055 0.204661-0.260943 8.700149-10.864442 21.606087-17.075911 35.431977-17.075911 0.061398 0 0.12382 0 0.192382 0 0.12689 0 0.246617 0.040932 0.372483 0.044002 0.12689-0.002047 0.246617-0.044002 0.370437-0.044002 0.070608 0 0.134053 0 0.194428 0 13.82282 0 26.731828 6.211469 35.428907 17.075911 0.065492 0.082888 0.141216 0.178055 0.206708 0.260943 0.248663 0.297782 0.577145 0.514723 0.818645 0.823761 3.653203 4.627391 7.606235 9.677407 11.716856 14.95562 32.180933 40.729633 75.408457 96.880491 86.832647 111.738897 19.707854 7.001461 100.413967 35.746132 148.824537 54.003961 15.2094 5.731538 26.049283 16.381086 30.521131 29.979802C831.452659 450.042903 828.996724 465.727117 820.174801 479.288994zM727.617779 431.765631c-36.956703-13.284561-73.92364-26.570145-110.878297-39.85266-23.756053-30.267351-47.521317-60.541865-71.27737-90.810239-9.379625-12.299117-15.816221-30.764678-37.619806-30.703279-17.72878 9.372461-27.26804 27.176966-38.938847 42.465161-13.420661 16.766872-26.841322 33.537837-40.258912 50.304709-7.259334 9.580193-14.521738 19.164478-21.779026 28.744671-36.956703 13.281491-73.92364 26.568099-110.878297 39.85266-13.749142 5.293563-32.809243 7.569396-36.959773 22.210861-4.591575 16.193821 12.791327 31.717376 19.139919 41.158399 21.557992 31.354102 43.120077 62.720484 64.678068 94.075609 0.880043 37.887912 1.759063 75.786057 2.639107 113.673969 0.663102 14.84101-1.944282 34.936697 4.620227 44.423769 7.620561 11.014868 32.460296 4.02057 43.559075 0.652869 39.59581-11.975752 79.201853-23.955598 118.798686-35.931351 34.753525 10.45205 69.520353 20.907169 104.276948 31.359218 11.122315 3.443425 33.250288 13.145391 47.51927 9.79918 15.687284-3.677762 13.780865-27.453259 13.859659-46.3834 0.880043-39.194674 1.759063-78.400604 2.639107-117.595278 21.557992-31.354102 43.123147-62.720484 64.680115-94.075609 5.948479-8.819876 22.01541-23.180955 19.797905-37.889959C762.561639 439.504896 742.507908 437.528891 727.617779 431.765631z" p-id="2018" fill="#666666"></path></svg>