<?xml version="1.0" standalone="no"?><!DOCTYPE svg PUBLIC "-//W3C//DTD SVG 1.1//EN" "http://www.w3.org/Graphics/SVG/1.1/DTD/svg11.dtd"><svg t="1567616246471" class="icon" viewBox="0 0 1024 1024" version="1.1" xmlns="http://www.w3.org/2000/svg" p-id="17592" xmlns:xlink="http://www.w3.org/1999/xlink" width="200" height="200"><defs><style type="text/css"></style></defs><path d="M 734.774 825.52 L 273.289 825.52 c -89.39 0 -162.113 -72.7225 -162.113 -162.114 L 111.177 435.701 c 0 -89.3821 72.7225 -162.099 162.113 -162.099 l 420.718 0 c 14.491 0 26.2412 11.7475 26.2412 26.2385 c 0 14.4897 -11.7488 26.2372 -26.2412 26.2372 L 273.289 326.077 c -60.4571 0 -109.638 49.1745 -109.638 109.624 L 163.651 663.406 c 0 60.4571 49.1811 109.638 109.638 109.638 l 461.485 0 c 60.4557 0 109.637 -49.1811 109.637 -109.638 c 0 0.013247 -0.151017 -274.741 -0.151017 -378.146 c 0 -51.2954 14.4168 -90.7982 42.8623 -117.421 c 38.4364 -35.9672 87.8997 -33.1429 90.0034 -32.9892 c 14.4618 0.960414 25.4053 13.459 24.4449 27.9169 c -0.957764 14.4632 -13.3663 25.3854 -27.9103 24.4435 c -0.0861062 0 -29.5847 -1.1525 -51.1059 19.3447 c -17.1378 16.3284 -25.8212 42.808 -25.8212 78.7063 c 0 103.391 0.152341 378.133 0.152341 378.133 C 896.886 752.798 824.164 825.52 734.774 825.52 Z" fill="#ccc" p-id="17593"></path><path d="M 694.572 492.084 L 314.309 492.084 c -14.4897 0 -26.2372 -11.7475 -26.2372 -26.2359 c 0 -14.491 11.7475 -26.2385 26.2372 -26.2385 l 380.263 0 c 14.4897 0 26.2372 11.7475 26.2372 26.2385 C 720.809 480.337 709.063 492.084 694.572 492.084 Z" fill="#ccc" p-id="17594"></path><path d="M 694.572 658.194 L 314.309 658.194 c -14.4897 0 -26.2372 -11.7488 -26.2372 -26.2372 c 0 -14.491 11.7475 -26.2385 26.2372 -26.2385 l 380.263 0 c 14.4897 0 26.2372 11.7462 26.2372 26.2385 C 720.809 646.443 709.063 658.194 694.572 658.194 Z" fill="#ccc" p-id="17595"></path><path d="M 869.675 913.686 m -52.4744 0 a 51.2793 51.2793 0 1 0 104.949 0 a 51.2793 51.2793 0 1 0 -104.949 0 Z" fill="#ccc" p-id="17596"></path><path d="M 150.095 913.686 m -52.4744 0 a 51.2793 51.2793 0 1 0 104.949 0 a 51.2793 51.2793 0 1 0 -104.949 0 Z" fill="#ccc" p-id="17597"></path></svg>